<svg width="92" height="64" viewBox="0 0 92 64" xmlns="http://www.w3.org/2000/svg"><title>adidas</title><g fill="#E1E3E6"><path d="M38.624 57.105H22.996c4.67 2.899 10.136 4.822 16.354 6.114l-.726-6.114zm11.917.014l-.932 5.742c6.246-1.154 11.753-2.967 16.533-5.742H50.541zm-1.795-.027l-8.588.013c1.205 2.514 2.74 4.63 4.493 6.65 1.726-2.062 2.876-4.19 4.095-6.663zm23.108-3.82l-54.666-.027c-1.822-1.457-3.055-2.212-4.52-4.149h63.774c-1.424 1.567-3.054 2.981-4.588 4.177zm8.149-8.929l-70.65.028c-.945-1.32-2.028-3.173-2.699-4.643h76.048c-.712 1.648-1.672 3.173-2.7 4.615zM29.446 34.7l-24.668.014C2.518 29.48 1.093 24.08.408 17.376c12.712 2.267 22.52 7.501 29.038 17.323zm25.272.042H34.432C33.98 21.649 37.597 8.364 44.582.369c7.096 7.79 10.767 21.018 10.136 34.372zm30.066-.028l-25.149.014c6.945-9.795 16.916-15.331 29.833-17.296-.807 6.553-2.315 12.116-4.684 17.282zm2.37-28.711c-.028-.014-.055-.014-.083-.014-2.657 0-4.848 2.185-4.848 4.85 0 2.665 2.191 4.849 4.848 4.849h.082c2.659-.04 4.809-2.212 4.809-4.85 0-2.637-2.15-4.794-4.809-4.835zm0 8.929c-2.219 0-4.04-1.84-4.04-4.066 0-2.198 1.821-4.053 4.04-4.025a4.054 4.054 0 0 1 4.054 4.039 4.048 4.048 0 0 1-4.055 4.052z"/><path d="M88.564 11.648a3.206 3.206 0 0 0-.56-.454c.452-.069.807-.22 1.053-.508.22-.234.344-.564.344-.948 0-.316-.11-.605-.247-.852-.151-.22-.384-.412-.63-.48-.247-.11-.658-.165-1.233-.165H85.1v5.288h1.027v-2.211h.219c.247 0 .424.013.548.055a.98.98 0 0 1 .26.178c.014.014.041.028.055.042.082.123.273.37.56.783l.754 1.154h1.274l-.63-1.017c-.247-.412-.465-.728-.603-.865zm-1.41-1.182h-1.027V9.161h1.026c.302 0 .508 0 .576.014a.59.59 0 0 1 .41.206c.111.082.138.247.138.412a.832.832 0 0 1-.096.412.742.742 0 0 1-.315.206c-.11.028-.328.042-.713.055z"/></g></svg>