<svg width="122" height="64" viewBox="0 0 122 64" xmlns="http://www.w3.org/2000/svg"><title>carhartt</title><g fill="#E1E3E6"><path d="M118.536 14.984v27.092h-16.504s-20.457-.268-20.457-20.746c0 0-.375-7.52 6.623-14.505C95.194-.161 102.406.53 102.406.53s5.234-.373 9.987 1.92c0 0 5.716 2.827 5.716 7.627 0 0-.107 4.586-4.487 4.586s-4.54-4.372-4.54-4.372.053-4.587 4.54-4.587c0 0 .695 0 .962.107 0 0-.801-1.28-3.953-1.28-2.404 0-7.158 2.027-7.158 7.946 0 0 .16 7.412 8.065 7.412 0 0 4.808.373 6.998-4.906zm.674 33.996a2.02 2.02 0 0 0 2.02-2.017 2.013 2.013 0 0 0-2.02-2.018 2.01 2.01 0 0 0-1.429.59 2.01 2.01 0 0 0-.592 1.428c0 .557.226 1.062.59 1.426h.002c.378.379.892.592 1.428.591zm1.608-.413a2.275 2.275 0 0 1-3.217.001 2.266 2.266 0 0 1 0-3.212 2.27 2.27 0 0 1 1.608-.665 2.27 2.27 0 0 1 2.275 2.271c0 .626-.254 1.196-.666 1.605z"/><path d="M118.534 45.902h.832c.193 0 .336.04.426.12a.389.389 0 0 1 .136.306.428.428 0 0 1-.07.235.393.393 0 0 1-.205.158c-.12.037-.247.054-.373.05h-.747v-.87zm0 2.333V47.07h.404c.089 0 .153.004.192.014a.49.49 0 0 1 .158.07c.053.033.11.092.177.175.066.083.15.204.25.361l.349.546h.436l-.456-.714a1.79 1.79 0 0 0-.288-.35.931.931 0 0 0-.21-.13c.251-.034.439-.115.559-.243a.659.659 0 0 0 .181-.47.762.762 0 0 0-.108-.396.586.586 0 0 0-.293-.25c-.122-.046-.3-.07-.534-.07h-1.164v2.623h.347zm-106.1 15.54h-7.63c0 .096-4.457-.389-4.457-6.613 0-6.225 4.446-6.032 4.446-6.032l7.598-.039s.91.053.91 1.273c0 1.4-.914 1.397-.914 1.397H5.393s-2.105-.12-2.078 3.067c.016 1.964 0 1.004 0 1.004s.25 3.1 2.253 3.235h6.866s.867.03.867 1.378c0 1.328-.867 1.33-.867 1.33zm4.941-10.041h9.748c.71.016.541.637.541.637v5.86c0 .878-1.094.864-1.094.864h-7.227c-1.598 0-1.62-1.474-1.62-1.474 0-1.607 1.62-1.472 1.62-1.472h6.69s.824-.001.824-1.296c0-1.37-.823-1.395-.823-1.395s-5.334-.012-8.137.005c-3.76.02-3.764 4.106-3.764 4.106 0 4.147 3.731 4.214 3.731 4.214s9.849-.011 11.54-.011c1.623 0 1.522-1.593 1.522-1.593v-8.83c0-2.363-2.053-2.219-2.053-2.219l-11.522-.004s-1.003.029-1.012 1.307c-.01 1.335 1.036 1.3 1.036 1.3zm15.865-1.558s.096-1.093 1.594-1.093c1.499 0 1.595 1.045 1.595 1.045V62.47s-.006 1.254-1.55 1.254c-1.609 0-1.64-1.254-1.64-1.254V52.176zm3.936-.408c-.003-.085.058-.106.058-.106s1.369-.58 3.64-.58 4.978.725 5.026 4.198c0 0-.086 1.812-.584 2.46 0 0-.03.077-.084.07-.219-.031-1.879-.55-2.526-.864-.076-.038-.043-.096-.043-.122 0 0 .676-1.592-.242-2.75-.881-1.11-4.01-.854-4.658-.486 0 0-.074.032-.113-.058-.08-.2-.466-1.51-.474-1.762zm10.784-2.424s.015-1.076 1.649-1.074c1.57.001 1.61 1.074 1.61 1.074v13.294s-.024 1.133-1.608 1.133c-1.63 0-1.652-1.107-1.652-1.107v-13.32zm3.782 2.638s-.018-.042.205-.177c0 0 .7-.527 3.77-.652 3.118.004 6.135 1.047 6.135 5.895 0 0-.23 3.562-1.38 6.267 0 0-.076.384-.537.384h-2.607s-.64.128-.384-.435c.255-.561 1.687-3.919 1.687-5.807 0-1.82-.511-3.905-4.14-3.905 0 0-1.23-.003-2.097.434 0 0-.383.205-.46-.128-.076-.332-.268-1.416-.192-1.876zm46.93-2.48s.007-1.222 1.418-1.232c1.383-.01 1.433 1.232 1.433 1.232v1.624h3.68s.84.018.84 1.31c0 1.272-.814 1.296-.814 1.296h-3.706v8.757s-.05 1.288-1.433 1.29c-1.41 0-1.43-1.29-1.43-1.29v-8.743h-1.588s-.802-.014-.802-1.31c0-1.292.78-1.339.78-1.339l1.622.03v-1.625zm11.759 0s.007-1.222 1.419-1.232c1.381-.01 1.43 1.232 1.43 1.232v1.609h4.04s1.106-.022 1.106 1.31c0 1.287-1.08 1.314-1.08 1.314h-4.065v8.754s-.05 1.288-1.43 1.29c-1.413 0-1.431-1.29-1.431-1.29v-8.74h-1.59s-.801-.017-.801-1.34c0-1.276.78-1.312.78-1.312l1.622.03v-1.625zm-28.348 2.674s.096-1.093 1.594-1.093 1.595 1.045 1.595 1.045V62.47s-.007 1.254-1.55 1.254c-1.61 0-1.64-1.254-1.64-1.254V52.176h.001zm3.935-.408c-.002-.085.058-.106.058-.106s1.37-.58 3.64-.58c2.271 0 4.979.725 5.027 4.198 0 0-.086 1.812-.585 2.46 0 0-.03.077-.084.07-.218-.031-1.879-.55-2.526-.864-.076-.038-.042-.096-.042-.122 0 0 .675-1.592-.243-2.75-.88-1.11-4.01-.854-4.657-.486 0 0-.075.032-.114-.058-.08-.2-.465-1.51-.474-1.762zm-19.826 1.966h9.747c.71.016.541.637.541.637v5.86c0 .878-1.094.864-1.094.864h-7.227c-1.597 0-1.618-1.474-1.618-1.474 0-1.607 1.618-1.472 1.618-1.472h6.691s.822-.001.822-1.296c0-1.37-.822-1.395-.822-1.395s-5.333-.012-8.135.005c-3.763.02-3.766 4.106-3.766 4.106 0 4.097 3.735 4.207 3.735 4.207l11.535-.004c1.623 0 1.523-1.593 1.523-1.593v-8.83c0-2.363-2.054-2.219-2.054-2.219l-11.522-.004s-1.003.029-1.012 1.307c-.009 1.335 1.038 1.3 1.038 1.3z"/></g></svg>