<svg width="16" height="16" viewBox="0 0 16 16" xmlns="http://www.w3.org/2000/svg"><title>instagram</title><circle cx="7.89" cy="7.89" r="3.21"/><path d="M15.73 4a5.33 5.33 0 0 0-.33-1.79 3 3 0 0 0-.72-1.11 3 3 0 0 0-1.11-.71 5.33 5.33 0 0 0-1.79-.33C10.77 0 10.46 0 7.89 0 5.32 0 5 0 4 .06a5.32 5.32 0 0 0-1.79.33 3 3 0 0 0-1.11.72 3 3 0 0 0-.71 1.1A5.33 5.33 0 0 0 .06 4C0 5 0 5.32 0 7.89c0 2.57 0 2.87.06 3.89a5.33 5.33 0 0 0 .33 1.79 3 3 0 0 0 .72 1.11 3 3 0 0 0 1.11.72 5.32 5.32 0 0 0 1.78.33c1 0 1.32.06 3.89.06 2.57 0 2.88 0 3.89-.06a5.32 5.32 0 0 0 1.79-.33 3.19 3.19 0 0 0 1.83-1.83 5.33 5.33 0 0 0 .33-1.79c0-1 .06-1.32.06-3.89 0-2.57-.02-2.89-.06-3.89zm-7.84 8.83a4.94 4.94 0 1 1 0-9.88 4.94 4.94 0 0 1 0 9.88zM13 3.91a1.16 1.16 0 1 1 0-2.32 1.16 1.16 0 0 1 0 2.32z"/></svg>