<svg width="101" height="56" viewBox="0 0 101 56" xmlns="http://www.w3.org/2000/svg"><title>logo</title><g fill="none" fill-rule="evenodd"><path d="M45.586 13.24l1.566 3.056h7.898l1.536-3.053-1.538-3.058h-7.896l-1.566 3.055zm-1.583 0a.665.665 0 0 1 .062-.346L50.407.399c.126-.273.42-.399.693-.399.273 0 .525.126.672.399l6.32 12.432c.085.14.12.271.115.39a.681.681 0 0 1-.111.428l-6.323 12.435c-.147.273-.399.399-.672.399s-.567-.126-.693-.4l-6.343-12.497a.665.665 0 0 1-.062-.346zm10.394-4.378L51.1 2.247l-3.318 6.615h6.615zm.002 8.757h-6.617l3.32 6.617 3.297-6.617z" fill="#000"/><path d="M10.374 50.149l-3.297-6.615-3.318 6.615h6.615zm.651 1.323H3.129L1.428 54.79c-.378.777-1.764.231-1.386-.609l6.342-12.495c.126-.273.42-.399.693-.399.273 0 .525.126.672.399l6.321 12.432c.546.903-1.008 1.428-1.407.609l-1.638-3.255zM28.641 55h-8.61c-.567 0-.798-.273-.798-.777V42.169c0-.987 1.554-.987 1.554 0v11.445h7.854c1.071 0 1.071 1.386 0 1.386zm12.282-5.061l5.082-7.98c.483-.756 1.449-.504 1.449.378v12.096c0 1.008-1.533 1.008-1.533 0v-9.555l-4.284 6.699c-.336.609-1.134.609-1.449 0l-4.284-6.678v9.534c0 1.008-1.533 1.008-1.533 0V42.337c0-.903 1.008-1.134 1.428-.378l5.124 7.98zm13.101 4.536V41.917c0-1.05 1.575-1.029 1.575 0v12.558c0 .966-1.575 1.008-1.575 0zm17.238-4.893v-7.434c0-.882 1.596-.924 1.596 0v12.054c0 1.05-1.449 1.155-1.89.42l-7.854-10.521.168 2.898v7.413c0 1.029-1.596 1.05-1.596 0V42.379c0-1.05 1.176-1.218 1.701-.441l8.085 10.815-.21-3.171zm7.893 4.893V41.917c0-1.05 1.575-1.029 1.575 0v12.558c0 .966-1.575 1.008-1.575 0zm14.361-4.536l5.082-7.98c.483-.756 1.449-.504 1.449.378v12.096c0 1.008-1.533 1.008-1.533 0v-9.555l-4.284 6.699c-.336.609-1.134.609-1.449 0l-4.284-6.678v9.534c0 1.008-1.533 1.008-1.533 0V42.337c0-.903 1.008-1.134 1.428-.378l5.124 7.98z" fill="#0C0D0D"/></g></svg>