<svg width="137" height="64" viewBox="0 0 137 64" xmlns="http://www.w3.org/2000/svg"><title>new-balance</title><g fill="#E1E3E6"><path d="M57.076 29.23l-15.675.564 14.883.835.792-1.399zM55.2 32.555l-15.712.565 14.939.838.773-1.403zm-1.875 3.353l-15.693.557 14.921.837.772-1.394zm-1.837 3.337l-15.712.564 14.904.836.808-1.4zm19.207-26.798l-20.006.719 20.063 1.125-.057-1.844zm-.126-3.3l-17.973.636 18.03 1.044-.057-1.68zm-.129-3.183l-16.013.532 16.09.902-.077-1.434zm-.108-3.268l-14.035.474 14.09.84-.055-1.314zm-.09-2.642H58.034L70.26.71l-.019-.655zM49.595 42.58l-15.674.573h15.354l.32-.573z"/><path d="M102.716.161h-22.59l-.64 1.145 11.304.605c.133 0 .133.19-.057.19l-11.906.402L77.68 4.53l11.227.67c.15.019.113.228-.019.228l-11.925.396-1.11 1.943 11.209.628c.244.019.244.229 0 .229l-11.906.421-1.13 2.032 11.17.647c.246.019.227.247 0 .247L73.29 12.4l-1.15 2.007 11.19.627c.169.02.189.229-.038.229l-34.306 1.16 32.555 1.826c.206 0 .188.266-.04.266l-34.36 1.237 32.554 1.825c.15 0 .188.247-.039.247l-34.418 1.255 32.554 1.826c.133.019.263.266-.018.285L43.41 26.425l32.554 1.825c.094.019.188.266-.038.266l-17.294.622.056 1.576 15.41.864c.113.02.17.248-.038.248l-15.315.55.075 1.762 13.377.75c.131.02.188.286-.039.286l-13.263.47.058 1.934 11.398.639c.131.018.169.265-.057.265l-11.284.407.075 2.128 9.42.528c.132.019.132.248-.057.248l-9.325.34.038.915h30.406c8.063 0 15.296-5.934 16.653-10.65 1.358-4.717 1.358-8.977-5.123-11.107 3.618-.837 9.909-4.956 11.153-10.65 1.128-5.174-.755-10.46-9.534-10.48zM87.42 33.191h-9.343l5.274-9.433h6.933c7.16 0 3.692 9.433-2.864 9.433zm12.094-20.237c-.301 1.141-2.563 4.032-5.425 4.032h-6.933l4.445-7.91h3.542c4.52.152 4.671 2.738 4.371 3.878zm37.428 43.763c0-3.656-3.01-6.718-6.631-6.718-3.715 0-6.748 3.11-6.748 6.932a6.84 6.84 0 0 0 1.975 4.842 6.71 6.71 0 0 0 4.797 1.993c2.75 0 5.36-1.899 6.136-4.486h-3.433c-.682 1.092-1.574 1.59-2.799 1.59-1.551 0-2.937-1.068-3.385-2.587h9.922c.119-.735.166-1.092.166-1.566zm-10.18-.916c.446-1.78 1.857-2.92 3.596-2.92 1.741 0 3.105 1.117 3.527 2.92h-7.124zM92.37 50.633v1.066c-.987-1.068-2.416-1.676-3.945-1.676-3.386 0-6.272 2.919-6.272 6.717 0 3.583 2.553 6.797 6.339 6.797 1.67 0 2.939-.389 4.137-1.765v1.685h2.87V50.633H92.37zm-3.504 10.186c-2.178 0-3.943-1.782-3.943-3.98s1.765-3.98 3.943-3.98c2.177 0 3.942 1.782 3.942 3.98s-1.765 3.98-3.942 3.98zM6.862 50c-1.292 0-2.28.45-3.362 1.567v-1.258H.608v13.15h3.127v-6.196c0-1.685.141-4.368 2.445-4.368 2.163 0 2.399 2.516 2.399 4.13v6.432h3.126v-7.05c0-1.85-.14-2.728-.634-3.773C10.342 51.068 8.626 50 6.862 50zm19.431 6.718c0-3.656-3.01-6.718-6.63-6.718-3.716 0-6.749 3.11-6.749 6.932a6.84 6.84 0 0 0 1.976 4.841 6.711 6.711 0 0 0 4.796 1.994c2.75 0 5.36-1.899 6.136-4.486H22.39c-.682 1.092-1.575 1.59-2.798 1.59-1.552 0-2.94-1.068-3.386-2.587h9.922c.118-.735.165-1.092.165-1.566zm-10.18-.916c.447-1.78 1.857-2.92 3.598-2.92 1.74 0 3.103 1.117 3.527 2.92h-7.125zm61.632 7.645h3.127v-17.54h-3.127v17.54zM103.749 50c-1.293 0-2.282.45-3.363 1.567v-1.258h-2.892v13.15h3.128v-6.196c0-1.685.14-4.368 2.445-4.368 2.162 0 2.398 2.516 2.398 4.13v6.432h3.127v-7.05c0-1.85-.14-2.728-.635-3.773-.728-1.566-2.444-2.634-4.208-2.634zm12.65 2.896c1.433 0 2.255.475 3.032 1.804h3.526c-.964-2.824-3.432-4.7-6.442-4.7-3.81 0-6.866 3.061-6.866 6.836 0 3.797 3.08 6.93 6.866 6.93a6.951 6.951 0 0 0 5.125-2.302c.659-.736.894-1.163 1.317-2.326h-3.526c-.73 1.14-1.67 1.732-2.845 1.732-2.187 0-3.809-1.709-3.809-3.988 0-2.3 1.552-3.986 3.621-3.986zM38.245 58.33l-2.215-8.022h-2.516l-2.239 8.022-2.647-8.022h-2.76l4.35 13.15h2.003l2.54-8.521 2.468 8.52h2.102l4.17-13.149h-2.585l-2.671 8.022zM55 50.013c-1.528 0-2.958.607-3.946 1.675v-5.782h-3.127v17.54h2.868v-1.685c1.2 1.377 2.469 1.765 4.138 1.765 3.786 0 6.34-3.213 6.34-6.797 0-3.797-2.887-6.716-6.273-6.716zm-.441 10.806c-2.178 0-3.943-1.782-3.943-3.98s1.765-3.98 3.943-3.98c2.177 0 3.943 1.782 3.943 3.98s-1.766 3.98-3.943 3.98zm17.969-10.186v1.066c-.988-1.068-2.417-1.676-3.946-1.676-3.385 0-6.273 2.919-6.273 6.717 0 3.583 2.554 6.797 6.339 6.797 1.67 0 2.939-.389 4.138-1.765v1.685h2.869V50.633h-3.127zm-3.504 10.186c-2.178 0-3.943-1.782-3.943-3.98s1.765-3.98 3.943-3.98c2.177 0 3.943 1.782 3.943 3.98s-1.766 3.98-3.943 3.98z"/></g></svg>