<svg width="103" height="65" viewBox="0 0 103 65" xmlns="http://www.w3.org/2000/svg"><title>puma</title><g fill="#E1E3E6"><path d="M55.443.787c-.334.05-.656 1.293-1.3 1.942-.474.466-1.062.439-1.376 1.016-.12.214-.082.583-.217.937-.264.707-1.192.77-1.192 1.541-.002.833.774.992 1.447 1.583.525.474.575.802 1.214 1.033.542.186 1.351-.424 2.079-.205.597.18 1.17.31 1.305.928.118.572-.009 1.458-.733 1.355-.243-.028-1.304-.387-2.604-.248-1.57.18-3.36.698-3.538 2.465-.095.987 1.114 2.152 2.283 1.916.808-.161.426-1.123.865-1.59.576-.6 3.845 2.09 6.884 2.09 1.279 0 2.231-.327 3.175-1.327.09-.076.196-.24.333-.25.13.011.352.139.427.193 2.446 1.986 4.297 5.97 13.29 6.016 1.264.008 2.704.617 3.88 1.7 1.05.98 1.664 2.504 2.261 4.05.9 2.32 2.512 4.577 4.957 7.087.135.135 2.148 1.716 2.308 1.833.025.017.174.374.122.573-.06 1.507-.276 5.885 2.957 6.082.788.04.582-.522.582-.906-.001-.763-.14-1.521.259-2.302.545-1.073-1.155-1.567-1.106-3.89.037-1.73-1.406-1.435-2.134-2.754-.421-.765-.795-1.17-.769-2.104.166-5.259-1.108-8.715-1.743-9.564-.496-.64-.906-.894-.45-1.191 2.695-1.8 3.308-3.473 3.308-3.473 1.435-3.406 2.724-6.516 4.506-7.885.358-.282 1.276-.976 1.839-1.247 1.662-.79 2.535-1.27 3.017-1.743.761-.75 1.367-2.316.635-3.265-.91-1.172-2.483-.242-3.178.174-4.96 2.972-5.69 8.215-7.409 11.225-1.37 2.406-3.599 4.173-5.591 4.318-1.493.112-3.104-.193-4.707-.904-3.9-1.726-6.033-3.955-6.537-4.349-1.048-.816-9.181-8.878-15.77-9.206 0 0-.817-1.654-1.023-1.68-.481-.063-.975.986-1.328 1.109-.334.11-.893-1.138-1.228-1.083zM26.435 48.899a1.18 1.18 0 0 1-1.147-1.164l.001-20.754h-6.774v22.876c0 1.122.9 2.037 2.004 2.037h11.84c1.111 0 2-.915 2-2.037V26.981h-6.768l-.006 20.754a1.18 1.18 0 0 1-1.15 1.164zm22.679-21.918H38.863a2.195 2.195 0 0 0-1.56.656 2.238 2.238 0 0 0-.642 1.578v22.679h6.781V31.092c.002-.305.123-.597.338-.812.215-.214.506-.333.808-.331.633 0 1.14.493 1.155 1.125v20.82h6.751v-20.82a1.137 1.137 0 0 1 1.149-1.126 1.15 1.15 0 0 1 1.148 1.143v20.803h6.782v-22.68a2.24 2.24 0 0 0-.644-1.577 2.197 2.197 0 0 0-1.56-.656H49.114zM13.996 45.634H7.153v6.26H.382V26.98h13.657c1.223 0 2.177 1.004 2.177 2.244v14.162a2.25 2.25 0 0 1-.648 1.589 2.207 2.207 0 0 1-1.572.658zm-4.546-14.5c.005-.31-.114-.61-.329-.833a1.153 1.153 0 0 0-.817-.353H7.153V42.55h1.151a1.15 1.15 0 0 0 1.146-1.17V31.133zm78.406 17.807c0 1.692-1.344 3.068-3.007 3.068a3.011 3.011 0 0 1-2.147-.898 3.07 3.07 0 0 1-.883-2.17c0-1.668 1.351-3.064 2.98-3.064a3.033 3.033 0 0 1 3.057 3.064zm-3.05-2.618c-1.363 0-2.505 1.186-2.505 2.626 0 1.444 1.142 2.62 2.546 2.62 1.392 0 2.522-1.176 2.522-2.62 0-1.442-1.13-2.626-2.522-2.626h-.042z"/><path d="M86.27 50.715h-.808l-1.04-1.397v1.397h-.66v-3.531h.693c.945 0 1.445.359 1.445 1.048 0 .46-.295.865-.707.99l-.05.016 1.126 1.477zm-1.734-1.97c.47 0 .72-.168.72-.504 0-.3-.242-.455-.7-.455h-.135v.96l.115-.001zM72.94 51.894v-6.255h-2.303v6.255H63.87v-22.68c0-1.237.988-2.233 2.203-2.233h11.431c.586 0 1.148.236 1.561.655.414.42.645.987.644 1.579v22.679h-6.77zm0-9.34V31.082a1.144 1.144 0 0 0-1.155-1.121 1.152 1.152 0 0 0-1.148 1.14v11.453h2.303zM.572 64.457v-6.844h.756v.643c.178-.251.38-.441.604-.567.224-.124.496-.19.817-.19.418 0 .787.111 1.107.326a2 2 0 0 1 .724.921c.165.397.246.83.246 1.303 0 .506-.09.962-.27 1.368a2.051 2.051 0 0 1-1.867 1.254 1.56 1.56 0 0 1-.745-.176 1.68 1.68 0 0 1-.542-.448v2.409l-.83.001zm.752-4.343c0 .636.127 1.108.382 1.413.255.303.566.456.928.456.368 0 .685-.157.948-.475.263-.315.396-.803.396-1.464 0-.632-.13-1.102-.386-1.417-.257-.313-.564-.47-.92-.47-.354 0-.667.167-.94.5-.273.336-.408.822-.408 1.457zm12.439 2.448v-.727c-.383.56-.9.838-1.556.838-.288 0-.56-.056-.81-.168-.25-.111-.436-.253-.557-.421a1.57 1.57 0 0 1-.257-.622 4.395 4.395 0 0 1-.05-.785v-3.065h.83v2.745c0 .438.017.733.05.885a.89.89 0 0 0 .333.52c.17.126.38.19.628.19.249 0 .482-.065.701-.194.22-.128.373-.305.463-.526.092-.223.138-.546.138-.967v-2.65h.83v4.947h-.743zm6.768 0v-4.947h.742v.692a1.736 1.736 0 0 1 1.486-.805c.363 0 .66.077.892.23.233.152.397.363.491.637.39-.578.894-.867 1.514-.867.487 0 .86.138 1.122.409.261.27.393.69.393 1.254v3.397h-.826v-3.117c0-.336-.027-.578-.08-.725a.717.717 0 0 0-.293-.356.913.913 0 0 0-.5-.136c-.344 0-.63.116-.857.348-.227.23-.343.601-.343 1.11v2.876h-.83v-3.214c0-.374-.067-.654-.203-.84-.136-.185-.356-.279-.665-.279-.233 0-.449.063-.647.189a1.047 1.047 0 0 0-.432.544c-.09.24-.134.584-.134 1.035v2.566h-.83zm15.792-.611c-.308.264-.604.45-.888.559a2.54 2.54 0 0 1-.917.162c-.538 0-.951-.132-1.24-.397a1.328 1.328 0 0 1-.434-1.019c0-.244.053-.464.164-.665.102-.193.25-.358.428-.481a2.05 2.05 0 0 1 .599-.275c.243-.057.49-.1.737-.125.671-.081 1.166-.177 1.482-.29l.005-.219c0-.341-.078-.582-.236-.721-.21-.192-.527-.285-.945-.285-.39 0-.678.068-.867.207-.185.138-.322.383-.412.734l-.811-.113c.074-.348.195-.633.364-.848.168-.217.414-.383.734-.5a3.24 3.24 0 0 1 1.112-.175c.419 0 .757.05 1.019.149.262.1.453.223.578.374.123.151.208.341.258.572.027.143.041.4.041.773v1.119c0 .78.017 1.274.053 1.478.035.207.106.406.21.595h-.868a1.751 1.751 0 0 1-.166-.61zm-.07-1.874c-.302.126-.754.23-1.356.319-.341.049-.584.105-.724.167a.713.713 0 0 0-.328.274.715.715 0 0 0-.116.397c0 .224.085.41.252.56.166.148.412.222.736.222.319 0 .604-.07.853-.212a1.3 1.3 0 0 0 .55-.58c.09-.189.133-.47.133-.838v-.309zm7.087 2.485v-.956h.946v.956h-.946zm10.313-1.814l.814.11c-.09.566-.317 1.013-.684 1.333-.367.322-.819.481-1.354.481-.67 0-1.21-.22-1.618-.663-.408-.442-.613-1.076-.613-1.903 0-.534.09-1.002.265-1.403.176-.4.443-.701.802-.901.357-.2.76-.304 1.169-.301.531 0 .968.137 1.305.408.34.272.555.658.652 1.159l-.808.125c-.078-.332-.214-.582-.408-.75a1.049 1.049 0 0 0-.709-.252c-.42 0-.759.151-1.02.454-.261.303-.393.782-.393 1.437 0 .664.127 1.147.38 1.45.252.3.58.45.987.45.325 0 .598-.1.816-.303.219-.2.357-.51.417-.93zm5.939-.661c0-.917.251-1.596.757-2.036.422-.366.934-.551 1.54-.551.676 0 1.225.222 1.653.67.427.445.64 1.06.64 1.845 0 .638-.094 1.139-.283 1.503a2.012 2.012 0 0 1-.826.851c-.362.202-.77.306-1.184.302-.685 0-1.24-.22-1.663-.666-.423-.443-.634-1.081-.634-1.918zm.855 0c0 .633.137 1.107.41 1.423.274.317.62.474 1.034.474.414 0 .756-.16 1.03-.475.273-.317.41-.8.41-1.45 0-.612-.137-1.076-.412-1.392a1.311 1.311 0 0 0-1.028-.472c-.414 0-.759.157-1.033.47-.276.314-.411.789-.411 1.422zm9.434 2.475v-4.947h.741v.692a1.736 1.736 0 0 1 1.488-.805c.362 0 .66.077.89.23.234.152.398.363.494.637.389-.578.893-.867 1.514-.867.486 0 .859.138 1.12.409.263.27.394.69.394 1.254v3.397h-.826v-3.117c0-.336-.028-.578-.08-.725a.718.718 0 0 0-.294-.356.912.912 0 0 0-.499-.136c-.344 0-.629.116-.857.348-.227.23-.342.601-.342 1.11v2.876h-.83v-3.214c0-.374-.068-.654-.204-.84-.136-.185-.356-.279-.665-.279a1.19 1.19 0 0 0-.648.189 1.052 1.052 0 0 0-.43.544c-.09.24-.135.584-.135 1.035v2.566h-.83z"/></g></svg>