<svg width="73" height="67" viewBox="0 0 73 67" xmlns="http://www.w3.org/2000/svg"><title>stussy</title><path d="M35.651 10.91l-.407.142-.44.266-.315.294-.17.37-.106.472-.037.412.037.405.106.473.17.363.253.227.351.199.32.126.419.061.496.003.41-.064.387-.185.414-.29.286-.302.154-.398.081-.5.003-.432-.084-.397-.161-.447-.217-.322-.503-.257-.678-.138-.769-.082zm-15.248 5.229l-.437.006-.487.007-.528.009-.56.01-.587.01-.602.012-.61.012-.611.014-.602.013-.587.014-.56.014-.529.014-.486.013-.437.014-.463.018-.523.032-.57.042-.606.047-.63.05-.642.046-.642.04-.628.029-.605.013-.567-.005-.517-.029-.457-.057-.446-.134-.516-.212-.438-.193-.273-.135-.32-.173-.257-.168-.17-.168-.193-.212-.187-.16-.443-.207-.555-.167-.476-.014-.63.344-.627.598-.38.613L0 16.86l.204.858.29.689.368.453.53.46.501.328.422.16.524.12.454.034.62-.148.707-.268.61-.199.476-.09.564-.086.62-.08.638-.073.622-.062.571-.05.484-.035.425-.024.468-.021.506-.018.538-.016.562-.014.581-.011.594-.01.6-.007.6-.007.594-.005.582-.004.562-.003.537-.003.507-.002.468-.002.425-.002.717-.006.837.003.708.003-.054.435-.072.47-.088.501-.103.526-.114.546-.124.561-.132.572-.137.578-.14.578-.143.573-.14.564-.137.55-.133.53-.124.506-.115.477-.104.443-.089.404-.07.331-.078.37-.088.408-.095.442-.103.474-.11.504-.115.532-.12.557-.127.58-.13.602-.135.62-.138.636-.14.65-.143.662-.145.67-.852.054-.8.05-.753.042-.704.037-.658.032-.613.027-.568.023-.526.018-.484.014-.444.01-.404.008-.367.004h-.331l-.295-.001-.262-.004-.407.017-.477.008-.365-.1-.039-.065-.03-.093-.006-.08.07-.143.122-.146.12-.1.427-.234.53-.21.6-.19.638-.172.647-.154.622-.137.568-.123.48-.11.536-.117.633-.12.544-.076.27.006.321.013.271-.02.51-.162.58-.26.46-.28.295-.283.3-.375.18-.358.008-.319-.067-.377-.091-.32-.154-.344-.226-.385-.245-.286-.299-.153-.382-.112-.331-.036-.575.151-.655.3-.558.25-.469.15-.556.163-.61.173-.626.177-.608.176-.554.17-.464.158-.415.154-.466.173-.508.192-.537.207-.56.22-.57.232-.573.24-.563.245-.545.248-.517.248-.478.247-.431.243-.373.236-.546.406-.582.538-.346.548-.008.425.128.5.192.391.383.342.535.308.482.215.532.156.655.135.702.112.668.083.555.054.452.028.516.019.564.009.6.001.622-.006.628-.012.622-.017.6-.02.565-.025.515-.025.452-.028.514-.024.631-.026.69-.023.688-.014h.627l.135.068.055.131.01.126-.02.269-.04.314-.06.358-.079.399-.094.435-.11.471-.122.502-.135.53-.146.554-.155.578-.162.597-.168.613-.173.625-.177.636-.178.642-.179.646-.177.647-.31.664-.401.764-.227.68.04.702.192.803.305.601.442.338.614.292.653.213.554.098.683-.06.791-.207.626-.286.39-.363.39-.506.307-.447.12-.23.13-.268.137-.205.152-.11.344-.203.645-.392 1.059-.674-.045.598-.084.619-.046.389-.025.182-.058.204-.067.165-.226.32-.29.36-.184.337-.036.36.042.436.067.369.098.417.159.478.206.359.377.243.503.195.444.1.554.026.653-.066.505-.184.265-.348.212-.483.148-.423.156-.535.134-.64.023-.544-.104-.25-.164-.284-.12-.243-.128-.583-.09-.699-.02-.599.065-.394.126-.461.122-.386.1-.352.137-.412.15-.327.11-.14.144-.146.134-.116.354-.186.438-.19.371-.163.365-.215.427-.246.383-.09.086.055.086.093.053.09.06.431-.03.525-.03.448-.015.252-.013.29.027.236.081.142.118.146.114.1.396.143.5.079.429.017.404-.054.466-.114.38-.145.27-.166.293-.23.212-.232.08-.206.048-.26.022-.224.006-.656-.048-.791-.065-.792-.043-.656-.017-.347-.008-.406.025-.339.092-.327.145-.377.15-.31.218-.294.29-.317.268-.243.217-.134.265-.141.217-.126.21-.129.24-.165.176-.17.248-.484.203-.612.099-.535-.023-.251-.067-.295-.073-.243-.039-.098-.055-.118-.056-.097-.126-.093-.161-.104-.1-.117.002-.215.078-.263.07-.224.058-.3.07-.354.109-.275.123-.136.175-.132.164-.044.162.117.14.22.085.201.125.438.09.506.063.562.039.602.021.627.009.636.001.631v.61l.002.576.012.524.025.459.05.46.068.528.081.58.09.611.09.63.083.63.074.612.055.579.032.528.002.46-.067.622-.14.745-.153.746-.102.621-.064.493-.048.582.036.492.19.464.312.506.348.347.447.143.557.045.472-.025.396-.11.449-.2.48-.242.34-.147.356-.268.24-.288.117-.47.017-.59-.059-.494-.184-.518-.299-.582-.292-.468-.168-.17-.215-.19-.167-.179-.088-.188-.081-.234-.055-.204-.105-.427-.104-.477-.1-.52-.1-.556-.097-.58-.095-.6-.09-.608-.086-.61-.082-.6-.076-.585-.07-.56-.064-.528-.058-.487-.049-.436-.13-.728-.123-.852.103-.677.079-.07.122-.056.112-.038.493-.088.597-.057.648-.028.65-.007.6.008.499.022.555.032.669.052.718.079.711.112.643.152.515.2.147.097.15.143.09.148-.003.098-.036.117-.036.098-.184.473-.24.547-.275.593-.286.608-.279.59-.25.546-.198.468-.205.486-.243.587-.242.626-.202.6-.12.51-.042.49.016.583.1.481.25.423.372.43.39.239.552-.088.633-.31.527-.305.134-.07.197-.103.257-.135.319-.165.375-.197.432-.229.486-.259.538-.29.589-.32.637-.35.684-.38.729-.41.773-.44.431-.33.504-.423.513-.465.46-.467.34-.422.293-.537.265-.672.143-.596.008-.353-.05-.411-.109-.328-.465-.441-.664-.408-.582-.316-.474-.248-.553-.26-.612-.27-.653-.274-.671-.278.067-.15.087-.17.084-.144.064-.109.083-.12.09-.084.513-.12.644-.003.556.048.7.121.714.13.712.136.69.14.652.14.595.14.52.138.426.132.316.125.186.114.05.093.029.12.008.101-.102.568-.221.664-.28.694-.28.652-.216.544-.171.471-.211.56-.228.603-.22.604-.193.566-.14.481-.118.527-.122.642-.108.684-.079.65-.035.544v.471l.042.556.108.454.221.338.32.352.322.238.325.106.41.05.352.006.451-.078.522-.148.427-.162.63-.381.71-.51.597-.438.457-.373.533-.486.57-.486.566-.374.524-.15.086.026.09.059.06.066.042.118.026.145.008.126-.109.548-.203.63-.15.54-.059.37-.045.436.016.36.115.294.18.32.18.251.218.204.29.207.267.128.388.064.466-.002.396-.062.39-.14.44-.226.333-.248.172-.3.142-.382.073-.334-.025-.274-.075-.317-.05-.274-.04-.561-.018-.682-.01-.685-.02-.568-.03-.268-.04-.317-.005-.268.161-.53.27-.615.29-.608.217-.516.157-.528.165-.645.165-.685.153-.65.134-.54.104-.464.098-.554.104-.61.116-.633.135-.624.164-.58.198-.504.243-.394.093-.081.12-.068.1-.014.111.117.081.191.045.168.087.464.059.532.034.586.015.625-.002.648-.013.657-.021.65-.026.629-.025.592-.02.54-.013.473-.007.429-.01.469-.014.504-.018.534-.02.56-.023.58-.025.593-.026.604-.027.61-.028.608-.028.604-.027.593-.027.58-.026.558-.023.532-.022.503-.02.467-.016.428-.008.418-.001.454.006.486.01.514.014.538.016.557.018.575.017.588.016.596.013.6.009.601.003.6-.003.592-.012.582-.02.567-.03.55-.044.527-.056.502-.07.472-.087.439-.104.401-.134.255-.194.277-.134.246-.097.667-.006.794.103.659.254.523.404.567.43.39.469.122.59.014.503-.061.507-.164.568-.276.4-.338.155-.535.022-.682-.027-.576-.053-.709-.123-.82-.211-.666-.457-.58-.154-.34-.015-.17.003-.422.003-.466v-1.604l-.003-.585-.003-.601-.002-.613-.004-.617-.003-.616-.004-.61-.003-.6-.004-.58-.002-.56-.003-.53-.001-.497-.001-.457v-.412l.001-.361-.01-.37-.012-.412-.011-.45-.01-.485-.01-.515-.01-.542-.01-.564-.008-.583-.007-.597-.009-.608-.006-.614-.006-.617-.006-.616-.005-.61-.003-.602-.004-.587-.001-.572-.002-.549v-.524l.001-.495.002-.462.003-.425.013-.513.023-.615.03-.665.031-.666.03-.615.023-.513.02-.436.019-.465.02-.491.022-.514.021-.537.023-.556.023-.573.023-.588.022-.602.024-.612.025-.62.023-.628.025-.632.024-.633.29-.414.287-.526.197-.464.176-.653.129-.785.008-.669-.142-.702-.29-.794-.418-.536-.525-.137-.681.026-.682.14-.525.209-.465.406-.44.593-.257.556.01.568.154.669.136.568.067.269.07.316.025.268-.017.104-.033.114-.025.095-.104.429-.109.476-.118.52-.125.554-.129.579-.133.594-.136.603-.136.602-.138.593-.137.576-.135.55-.133.515-.128.472-.123.421-.152.519-.185.626-.22.65-.254.586-.289.441-.041.03-.06.03-.05.014-.208-.087-.224-.164-.193-.137-.177-.096-.207-.106-.153-.112-.036-.047-.03-.06-.021-.056-.095-.503-.064-.595-.037-.657-.015-.69.002-.69.013-.662.022-.604.024-.515.056-.493.107-.575.134-.63.142-.655.126-.654.088-.624.027-.566-.055-.48-.176-.392-.29-.417-.309-.283-.521-.167-.652-.062-.54.066-.415.264-.419.413-.266.414-.007.557.128.67.042.566-.212.585-.346.66-.304.56-.247.496-.3.59-.328.635-.333.634-.312.583-.268.485-.144.32-.182.369-.211.252-.05.014-.062-.003-.05-.01-.22-.053-.264-.087-.316-.118-.37-.14-.425-.159-.488-.166-.552-.17-.622-.168-.693-.158-.77-.142-.848-.118-.932-.089.497-.894.41-.715.305-.485.204-.238.259-.26.236-.204.598-.417.73-.453.622-.384.299-.182.354-.221.273-.224.387-.52.38-.669.246-.604.113-.636.039-.76-.078-.636-.16-.338-.256-.36-.284-.23-.577-.091-.708.075-.578.167-.54.37-.57.54-.44.495-.34.483-.364.611-.366.66-.342.623-.3.507-.277.414-.336.482-.37.522-.381.535-.368.52-.332.479-.273.409-.225.39-.235.472-.246.528-.258.555-.272.554-.287.524-.303.467-.321.38-.34.268-.05.006-.062-.003-.05-.003-.639-.078-.747-.123-.638-.113-.65-.053-.755-.081-.533-.254-.016-.051v-.06l.016-.052.31-.385.476-.379.555-.357.544-.319.44-.265.34-.22.402-.244.357-.163.246-.034.292-.011.237-.042.516-.322.543-.472.416-.448.369-.504.368-.635.201-.58-.003-.337-.081-.39-.154-.288-.477-.26-.658-.153-.577-.051-.452.062-.52.148-.428.179-.373.251-.406.35-.307.327-.15.319-.146.394-.167.303-.359.302-.47.293-.542.283-.572.271-.56.258-.508.245-.414.228-.452.313-.53.4-.558.422-.54.382-.47.276-.41.188-.496.172-.418.029-.093-.057-.087-.092-.058-.09-.064-.285-.014-.35.003-.292v-.457l.014-.522.024-.572.032-.605.04-.62.043-.621.043-.603.043-.57.04-.52.034-.453.025-.596.042-.697.083-.588.282-.643.399-.733.257-.643.052-.607-.034-.716-.18-.557-.478-.389-.691-.294-.619-.095-.685.213-.742.448-.51.505-.123.4-.034.504-.005.425.024.663.059.78-.008.664-.076.434-.112.48-.144.517-.169.548-.188.568-.202.58-.208.582-.21.577-.207.564-.195.542-.179.51-.156.472-.129.423-.129.468-.136.531-.141.583-.146.62-.149.647-.15.662-.208.103-.265.087-.226.036-.315-.017-.357-.075-.265-.134-.042-.07-.025-.09-.008-.078-.05-.458-.022-.526-.001-.578.016-.613.029-.63.037-.63.04-.614.041-.58.034-.529.026-.46.015-.53.005-.635.01-.687.029-.683.064-.626.114-.513.228-.4.326-.442.22-.4.056-.37-.003-.44-.052-.369-.199-.649-.323-.73-.416-.49-.588-.136-.743.047-.606.165-.457.333-.452.505-.266.491.06.516.214.604.126.523-.033.458-.085.52-.126.564-.157.596-.178.61-.189.609-.187.592-.177.56-.156.511-.124.448-.115.45-.126.492-.136.53-.144.562-.151.59-.156.61-.16.627-.162.637-.163.643-.061.087-.09.09-.086.061-.145.026-.173-.009-.145-.017-.234-.002-.31-.009-.318-.052-.022-.468-.022-.52-.022-.56-.02-.59-.02-.608-.016-.614-.014-.61-.012-.596-.007-.568-.003-.531v-.483l.008-.422.005-.405.002-.447v-2.107l.003-.583.005-.597.01-.606.014-.609.02-.609.027-.604.035-.593.043-.58.054-.56.064-.536.076-.508.089-.475.102-.437.117-.394.133-.348.133.002.142.002.15.004.16.004.17.005.18.005.188.006.2.007.209.008.22.008.232.009.243.01.254.01.266.01.278.011.29.012.303.013.316.013.329.014.342.014.356.015.37.015.383.016.398.016.413.017.427.017.443.018.458.018.474.018.49.019.506.019.522.02.539.02.556.02.573.02.59.022.61.021.626.022.645.022.663.022.682.023.701.023.72.022.74.024.76.023.78.024.8.024.821.024.842.025.863.024.884.025.906.025.928.025.95.025.972.025.995.025 1.018.025.993.306.593.307.326.214.544.212.683.098.56-.072.53-.4.499-.633.297-.61.072-.567-.037-.703-.133-.692-.215-.532-.072-.102-.12-.14-.168-.166-.218-.176-.267-.173-.319-.155-.37-.125-.421-.079-.475-.02-.53.053-.582.14-.638.24-.694.356-.751.485-.265.01-.3.009-.33.01-.363.01-.39.01-.418.01-.443.01-.467.01-.489.01-.508.01-.528.008-.543.01-.56.009-.571.009-.584.008-.593.008-.6.007-.608.007-.612.007-.615.006-.615.005-.615.005-.613.004-.608.003-.603.003-.595.001-.585.001h-1.136l-.547-.002-.531-.003-.513-.003-.493-.005-.471-.006-.448-.007-.436-.008-.48-.012-.516-.014-.548-.017-.574-.02-.595-.02-.609-.023-.618-.025-.62-.025-.62-.025-.61-.026-.596-.025-.577-.024-.551-.024-.52-.022-.484-.02-.44-.019-.393-.016.08-.461.071-.503.064-.536.059-.564.054-.586.05-.6.05-.611.047-.614.049-.61.05-.602.054-.586.058-.563.064-.537.07-.502.079-.462.09-.415.157-.479.231-.558.265-.599.259-.598.212-.559.126-.48.052-.643-.022-.76-.105-.628-.206-.536-.311-.63L24.95.31 24.527 0l-.62.057-.707.33-.536.39-.37.535-.313.707-.179.627.023.714.134.841.08.714-.008.453-.023.506-.037.55-.05.585-.06.608-.066.623-.074.627-.078.62-.08.607-.082.58-.08.545-.077.5-.072.444-.076.459-.097.51-.114.551-.129.586-.138.61-.146.626-.149.634zM18.928 35.65l.1-.926.11-.832.114-.743.118-.657.12-.576.119-.499.116-.425.112-.356.104-.29.033-.109.05-.12.067-.084.122-.04.164.013.089.152.04 1.228.036 1.02.033.837.03.673.027.53.024.41.022.311.02.233.017.175-.318-.002-.293-.003-.251.005-.29.02-.345.028-.29.027zm-.437 2.42l1.1-.008.619-.026.343.035.111.027.115.057.087.154-.02.94-.011.867-.006.795-.002.73v1.809l-.002.487-.007.435-.013.386-.02.338-.029.295-.04.253-.042.126-.062.146-.059.117-.039.078-.055.09-.056.07-.527.37-.674.36-.586.286-.6.29-.716.314-.634.174-.128-.004-.148-.027-.111-.045-.064-.083-.056-.12-.03-.11.127-.69.121-.691.116-.69.11-.685.108-.674.104-.661.102-.643.101-.62.101-.596.102-.564.104-.53.107-.493.11-.45.114-.403.12-.353.127-.298.133-.24.143-.176.151-.11.16-.038zm4.337-.15l.723-.007.354.018.073.101-.048.178-.055.217-.048.195-.281 1.05-.162.646-.182.248-.027-.014-.028-.073-.02-.14-.09-.886-.093-.848-.116-.685zm3.487-2.345l.089-.271.117-.319.106-.263.143-.495.19-.565.292-.269.034.031.025.064.017.056.05.34.016.409.009.341.025.317.025.378.025.409-.243.016h-.29l-.242-.016-.112-.04-.13-.059-.146-.064zm-.15 2.42l1.35.026-.007 1.268-.026.915-.034.628-.031.41-.02.256.005.171-.397.179-.37.165-.321.12-.315.087-.374.09-.323.061.147-.694.134-.643.106-.544.112-.56.13-.683.129-.685.105-.567zm20.834.94l.164-.13.159-.11.14-.073.117-.04.145-.03.125-.005.46.137.513.248.426.23.514.263.593.33.456.347.1.137.092.174.033.153-.027.084-.062.087-.061.067-.398.338-.517.363-.567.358-.546.323-.459.26-.517.27-.637.304-.643.29-.539.227-.221.1-.26.113-.22.025-.063-.059-.06-.095-.039-.084.02-.249.073-.288.07-.24.192-.703.257-.815.251-.677.265-.529.348-.606.323-.494zm15.086-6.633l.296-.233.228.052.139.444-.103 1.171-.066.83-.05.554-.053.34-.078.19-.054.033-.135.005-.262-.051-.59-.2-.38-.109-.217-.066-.106-.035-.125-.05-.081-.067.014-.147.076-.18.073-.149.205-.327.27-.37.224-.319.25-.405.29-.489.235-.422zm-2.875 5.455l.187-.123.234-.03.204.003.49.05.578.129.482.134.312.095.355.132.27.162.153.202.14.265.094.235.062.408.02.496-.006.425-.022.417-.048.495-.08.417-.123.257-.18.288-.173.232-.505.523-.644.567-.563.465-.56.456-.683.51-.619.363-.335.134-.41.113-.342-.009-.195-.153-.173-.244-.095-.23.009-.562.153-.668.15-.563.132-.645.176-.773.196-.766.196-.625.227-.603.307-.712.33-.7.3-.567zM30.202 9.367l-.477.126-.53.266-.393.31-.217.38-.17.498-.075.439.064.554.175.64.223.511.293.403.402.423.393.278.388.072.473-.003.389-.07.393-.23.41-.355.284-.355.184-.496.111-.618.017-.529-.092-.514-.195-.58-.25-.448-.313-.252-.416-.224-.37-.15-.194-.04-.239-.022-.268-.014z" fill="#E1E3E6"/></svg>