<svg width="127" height="59" viewBox="0 0 127 59" xmlns="http://www.w3.org/2000/svg"><title>the-north-face</title><path d="M82.348 3.316V0H69.181v18.207h13.167v-3.003h-9.503v-4.943h8.323V7.008h-8.323V3.316h9.503zm-3.664 16.768v7.008H71.48v-7.008h-3.725V38.23h3.725v-8.135h7.205v8.135h3.664V20.084h-3.664zm3.664 23.275v-3.252H69.181v18.456h13.167v-3.314h-9.503v-4.882h8.323v-3.002h-8.323v-4.006h9.503zM67.07 0h-3.664v7.008h-7.203V0h-3.664v18.207h3.664v-8.134h7.203v8.134h3.664V0zM36.765 0v3.316h5.589v14.891h3.664V3.317h5.589V0H36.765zM25.214 19.584c-5.776 0-8.819 3.316-8.819 9.573 0 6.57 3.043 9.823 8.819 9.823 5.775 0 8.756-3.254 8.756-9.823 0-6.257-2.981-9.573-8.756-9.573zm-4.844 9.573c0-4.192 1.614-6.257 4.844-6.257 3.477 0 5.092 2.065 5.092 6.257 0 4.443-1.615 6.57-5.092 6.57-3.23 0-4.844-2.127-4.844-6.57zm-9.254-9.073v12.827L3.912 20.084H0V38.23h3.478V25.465l7.39 12.765h3.912V20.084h-3.664zm17.078 27.53V43.36h9.254v-3.252H24.53v18.456h3.664v-7.695h8.136v-3.254h-8.136zm38.194-24.276v-3.254H51.607v3.254h5.527V38.23h3.726V23.338h5.528zm-22.916 7.947c1.18 0 2.111.187 2.546.687l.683 6.258h4.16v-.438c-.434-.251-.682-1.376-.682-3.505 0-2.564-.932-3.941-2.298-4.63 1.863-.75 2.794-2.127 2.794-4.442 0-3.254-1.863-5.13-5.775-5.13h-9.067V38.23h3.726v-6.945h3.913zm-3.913-3.067v-4.88h4.596c1.863 0 2.794.688 2.794 2.315s-.931 2.565-2.98 2.565h-4.41zm6.459 11.889h-4.41L35.15 58.563h3.912l1.429-4.004h6.707l1.118 4.004h3.974l-6.272-18.456zm-2.298 4.19l2.298 7.26h-4.596l2.298-7.26zm20.37 1.877h3.664c-.187-1.625-.684-3.002-1.802-4.192-1.614-1.376-3.477-2.315-6.023-2.315-2.547 0-4.41.939-6.024 2.566-1.366 1.626-2.298 3.941-2.298 7.008 0 6.507 2.732 9.759 8.073 9.759 4.658 0 7.203-2.315 8.074-6.756H64.09c-.496 2.126-2.112 3.253-4.161 3.253-3.043 0-4.41-2.064-4.41-6.07 0-4.378 1.367-6.506 4.41-6.506 2.05 0 3.23 1.19 4.161 3.253zm-46.08 12.14h.062-.062zm.062 0c.62 0 1.118-.252 1.491-.564a2.37 2.37 0 0 0 .558-1.563c0-.752-.248-1.252-.558-1.565-.373-.312-.87-.5-1.491-.5h-.062c-.746 0-1.242.188-1.553.5-.31.312-.497.813-.497 1.565v.06c0 .627.187 1.128.497 1.503.31.312.808.563 1.553.563h.062zm-.062.5c-.87 0-1.49-.312-1.926-.752-.434-.438-.62-1.062-.62-1.814v-.061c0-.878.186-1.502.62-1.94.435-.438 1.056-.626 1.926-.626h.062c.745 0 1.366.188 1.8.626.435.438.746 1.063.746 1.94 0 .813-.31 1.437-.745 1.875a2.51 2.51 0 0 1-1.801.752h-.062zm.248-2.878h.062c.249 0 .373-.126.373-.438v-.063s-.062 0-.062-.062c-.062-.063-.187-.063-.373-.063h-.683v.627h.683v-.001zm.435.438l.497.626c.062.125 0 .25-.063.312-.124.126-.31.063-.372 0l-.621-.876h-.56v.688c0 .126-.123.251-.247.251-.125 0-.249-.126-.249-.251V55.06c0-.126.124-.25.249-.25h.993c.249 0 .497.061.621.187.062.063.124.063.124.126.125.126.125.25.125.376 0 .5-.125.749-.497.875zM84.893 0c11.553 0 21.55 4.255 29.624 12.388C122.838 20.773 127 30.784 127 42.483v16.08h-16.892v-16.58c0-6.506-2.298-12.138-6.955-16.768-1.119-1.189-2.298-2.127-3.664-3.066-3.726-2.565-8.136-3.691-12.731-3.691h-1.863V0h-.001zm23.599 58.563H95.326V45.736c0-2.126-.682-3.754-2.11-5.13-1.367-1.437-3.23-2.127-5.093-2.127h-3.23V20.084h1.864c4.843 0 9.004 1.377 12.73 4.192.932.438 1.864 1.377 2.546 2.065 4.41 4.443 6.459 9.574 6.459 15.642v16.58zm-14.78 0h-8.82V40.107h3.231c1.428 0 2.795.499 3.974 1.626.931.938 1.615 2.378 1.615 4.003v12.827z" fill="#DCE1E6"/></svg>