<svg width="18" height="14" viewBox="0 0 18 14" xmlns="http://www.w3.org/2000/svg"><title>twitter</title><path d="M18.05 1.608a6.81 6.81 0 0 1-2.111.535A3.502 3.502 0 0 0 17.522.215a8.636 8.636 0 0 1-2.322.857A3.978 3.978 0 0 0 12.456.001C10.482-.036 8.84 1.534 8.76 3.536c-.025.255.011.513.106.75a10.378 10.378 0 0 1-7.6-3.643 3.358 3.358 0 0 0-.528 1.822 3.385 3.385 0 0 0 1.689 2.893 4.37 4.37 0 0 1-1.69-.429c.037 1.72 1.283 3.164 2.956 3.429-.308.088-.63.124-.95.107-.25.009-.5-.027-.738-.107a3.592 3.592 0 0 0 3.483 2.464 7.544 7.544 0 0 1-4.645 1.5H0a11.408 11.408 0 0 0 5.7 1.607 10.013 10.013 0 0 0 7.272-2.666 10.318 10.318 0 0 0 3.284-7.105v-.622a10.394 10.394 0 0 0 1.794-1.928z"/></svg>